<svg width="59" height="53" viewBox="0 0 59 53" fill="none" xmlns="http://www.w3.org/2000/svg">
<path fill-rule="evenodd" clip-rule="evenodd" d="M52.2826 0.59552H6.45653C3.30599 0.59552 0.728271 3.17417 0.728271 6.32586V46.4382C0.728271 49.5899 3.30599 52.1686 6.45653 52.1686H52.2826C55.4332 52.1686 58.0109 49.5899 58.0109 46.4382V6.32586C58.0109 3.17417 55.4332 0.59552 52.2826 0.59552ZM23.6413 40.7079H9.32066V34.9775H23.6413V40.7079ZM23.6413 29.2472H9.32066V23.5169H23.6413V29.2472ZM23.6413 17.7865H9.32066V12.0562H23.6413V17.7865ZM37.4464 34.9775L29.3696 26.8405L33.408 22.8006L37.4464 26.8691L46.5257 17.7865L50.5928 21.8551L37.4464 34.9775Z" fill="#4FD1C5"/>
</svg>
